<?xml version="1.0" encoding="utf-8"?>
<!-- Generator: Adobe Illustrator 24.0.1, SVG Export Plug-In . SVG Version: 6.00 Build 0)  -->
<svg version="1.1" id="Layer_1" xmlns="http://www.w3.org/2000/svg" xmlns:xlink="http://www.w3.org/1999/xlink" x="0px" y="0px"
	 viewBox="0 0 700 145.2" style="enable-background:new 0 0 700 145.2;" xml:space="preserve">
<style type="text/css">
	.st0{fill:#FFFFFF;}
	.st1{fill:#ED1C29;}
</style>
<title>logo-main</title>
<g>
	<g>
		<g>
			<g>
				<path class="st0" d="M0.1,1.5h45.1c9.8,0,17.2,2.3,22.1,7c4.9,4.7,7.3,11.3,7.3,19.9c0,8.9-2.7,15.8-8,20.8
					c-5.3,5-13.5,7.5-24.4,7.5H27.3v32.6H0.1V1.5z M27.3,38.9h6.6c5.2,0,8.9-0.9,11-2.7c2.1-1.8,3.2-4.1,3.2-7c0-2.8-0.9-5.1-2.8-7
					c-1.8-1.9-5.3-2.9-10.4-2.9h-7.7V38.9z"/>
			</g>
			<g>
				<path class="st0" d="M89.1,89.3V1.5h45.2c8.4,0,14.8,0.7,19.2,2.2c4.4,1.4,8,4.1,10.7,8c2.7,3.9,4.1,8.6,4.1,14.2
					c0,4.9-1,9.1-3.1,12.6c-2.1,3.5-4.9,6.4-8.6,8.6c-2.3,1.4-5.5,2.6-9.5,3.5c3.2,1.1,5.6,2.2,7.1,3.2c1,0.7,2.4,2.3,4.3,4.6
					c1.9,2.4,3.2,4.2,3.8,5.5l13.1,25.4h-30.7l-14.5-26.8c-1.8-3.5-3.5-5.7-4.9-6.8c-2-1.4-4.2-2-6.6-2h-2.4v35.6H89.1z M116.3,37.1
					h11.4c1.2,0,3.6-0.4,7.2-1.2c1.8-0.4,3.3-1.3,4.4-2.8c1.1-1.5,1.7-3.2,1.7-5.1c0-2.8-0.9-5-2.7-6.5c-1.8-1.5-5.2-2.3-10.1-2.3
					h-11.9V37.1z"/>
			</g>
			<g>
				<path class="st1" d="M178.6,45.5c0-14.3,4-25.5,12-33.5c8-8,19.1-12,33.4-12c14.6,0,25.9,3.9,33.8,11.8
					c7.9,7.8,11.9,18.8,11.9,33c0,10.3-1.7,18.7-5.2,25.2c-3.5,6.6-8.4,11.7-15,15.3c-6.5,3.7-14.7,5.5-24.4,5.5
					c-9.9,0-18.1-1.6-24.6-4.7c-6.5-3.2-11.7-8.1-15.8-15C180.6,64.3,178.6,55.7,178.6,45.5z M205.8,45.6c0,8.9,1.6,15.2,4.9,19.1
					c3.3,3.9,7.8,5.8,13.4,5.8c5.8,0,10.3-1.9,13.5-5.7c3.2-3.8,4.8-10.6,4.8-20.4c0-8.3-1.7-14.3-5-18.1c-3.3-3.8-7.9-5.7-13.6-5.7
					c-5.5,0-9.9,1.9-13.2,5.8C207.4,30.2,205.8,36.6,205.8,45.6z"/>
			</g>
			<g>
				<path class="st0" d="M285.3,1.5h27.2v87.8h-27.2V1.5z"/>
			</g>
			<g>
				<path class="st0" d="M332.1,1.5h25.3l33.1,48.6V1.5h25.6v87.8h-25.6l-32.9-48.2v48.2h-25.5V1.5z"/>
			</g>
			<g>
				<path class="st0" d="M427.9,1.5h82.5v21.7h-27.7v66.1h-27.1V23.2h-27.7V1.5z"/>
			</g>
			<g>
				<path class="st0" d="M522.6,1.5h72.7v18.7h-45.5v14H592v17.9h-42.2v17.3h46.8v19.9h-74V1.5z"/>
			</g>
			<g>
				<path class="st0" d="M611.6,89.3V1.5h45.2c8.4,0,14.8,0.7,19.2,2.2c4.4,1.4,8,4.1,10.7,8c2.7,3.9,4.1,8.6,4.1,14.2
					c0,4.9-1,9.1-3.1,12.6c-2.1,3.5-4.9,6.4-8.6,8.6c-2.3,1.4-5.5,2.6-9.5,3.5c3.2,1.1,5.6,2.2,7.1,3.2c1,0.7,2.4,2.3,4.3,4.6
					c1.9,2.4,3.2,4.2,3.8,5.5L698,89.3h-30.7l-14.5-26.8c-1.8-3.5-3.5-5.7-4.9-6.8c-2-1.4-4.2-2-6.6-2h-2.4v35.6H611.6z M638.9,37.1
					h11.4c1.2,0,3.6-0.4,7.2-1.2c1.8-0.4,3.3-1.3,4.4-2.8c1.1-1.5,1.7-3.2,1.7-5.1c0-2.8-0.9-5-2.7-6.5c-1.8-1.5-5.2-2.3-10.1-2.3
					h-11.9V37.1z"/>
			</g>
		</g>
	</g>
	<g>
		<path class="st0" d="M1.6,111h3.6v20.2H1.6V111z"/>
		<path class="st0" d="M15.6,114.3H9.2V111h16.4v3.3h-6.4v16.9h-3.6V114.3z"/>
		<path class="st0" d="M27.7,128.3l2.1-2.5c1.9,1.7,3.9,2.6,6.4,2.6c2.2,0,3.6-1,3.6-2.5v-0.1c0-1.4-0.8-2.2-4.6-3.1
			c-4.3-1-6.7-2.3-6.7-6v-0.1c0-3.5,2.9-5.9,6.9-5.9c2.9,0,5.3,0.9,7.3,2.5l-1.9,2.7c-1.8-1.4-3.6-2.1-5.5-2.1
			c-2.1,0-3.3,1.1-3.3,2.4v0.1c0,1.6,0.9,2.3,4.8,3.2c4.3,1,6.5,2.6,6.5,5.9v0.1c0,3.8-3,6-7.2,6C33,131.6,30.1,130.5,27.7,128.3z"
			/>
		<path class="st0" d="M46,128.3l2.1-2.5c1.9,1.7,3.9,2.6,6.4,2.6c2.2,0,3.6-1,3.6-2.5v-0.1c0-1.4-0.8-2.2-4.6-3.1
			c-4.3-1-6.7-2.3-6.7-6v-0.1c0-3.5,2.9-5.9,6.9-5.9c2.9,0,5.3,0.9,7.3,2.5l-1.9,2.7c-1.8-1.4-3.6-2.1-5.5-2.1
			c-2.1,0-3.3,1.1-3.3,2.4v0.1c0,1.6,0.9,2.3,4.8,3.2c4.3,1,6.5,2.6,6.5,5.9v0.1c0,3.8-3,6-7.2,6C51.3,131.6,48.4,130.5,46,128.3z"
			/>
		<path class="st0" d="M73.7,120.7h12v3.3h-12V120.7z"/>
		<path class="st0" d="M97.9,121.2L97.9,121.2c0-5.8,4.3-10.5,10.4-10.5c3.7,0,6,1.3,7.9,3.2l-2.3,2.6c-1.6-1.5-3.4-2.5-5.7-2.5
			c-3.9,0-6.7,3.2-6.7,7.1v0.1c0,4,2.8,7.2,6.7,7.2c2.5,0,4.1-1,5.8-2.6l2.3,2.3c-2.1,2.2-4.4,3.6-8.2,3.6
			C102.3,131.6,97.9,127,97.9,121.2z M109.6,109.1h-3.3l-3.5-3.9h2.9l2.2,1.6l2.2-1.6h2.9L109.6,109.1z"/>
		<path class="st0" d="M120.2,111h3.6v17h10.6v3.2h-14.2V111z"/>
		<path class="st0" d="M145.4,110.9h3.3l8.9,20.4h-3.8l-2.1-4.9h-9.6l-2.1,4.9h-3.6L145.4,110.9z M150.5,123.2l-3.5-8.1l-3.5,8.1
			H150.5z"/>
		<path class="st0" d="M161.1,111h3.3l10.8,14v-14h3.5v20.2h-3l-11.2-14.4v14.4h-3.5V111z"/>
		<path class="st0" d="M193,111h3.6v20.2H193V111z"/>
		<path class="st0" d="M202.1,111h3.3l10.8,14v-14h3.5v20.2h-3l-11.2-14.4v14.4h-3.5V111z"/>
		<path class="st0" d="M225,111h15.1v3.2h-11.5v5.5h10.2v3.2h-10.2v8.2H225V111z"/>
		<path class="st0" d="M244.3,111h3.6v20.2h-3.6V111z"/>
		<path class="st0" d="M253.3,111h3.3l10.8,14v-14h3.5v20.2h-3l-11.2-14.4v14.4h-3.5V111z"/>
		<path class="st0" d="M276.5,111h3.6v20.2h-3.6V111z"/>
		<path class="st0" d="M290.5,114.3h-6.4V111h16.4v3.3h-6.4v16.9h-3.6V114.3z"/>
		<path class="st0" d="M310.3,123.3l-8-12.3h4.2l5.7,9l5.7-9h4.1l-8,12.2v8.1h-3.6V123.3z"/>
		<path class="st0" d="M334.1,111h3.6v20.2h-3.6V111z"/>
		<path class="st0" d="M343.1,111h3.3l10.8,14v-14h3.5v20.2h-3l-11.2-14.4v14.4h-3.5V111z"/>
		<path class="st0" d="M371,114.3h-6.4V111H381v3.3h-6.4v16.9H371V114.3z"/>
		<path class="st0" d="M384.9,111h15v3.2h-11.5v5.3h10.1v3.2h-10.1v5.4H400v3.2h-15.2V111z"/>
		<path class="st0" d="M404.3,111h9c2.5,0,4.5,0.8,5.8,2c1.1,1.1,1.7,2.6,1.7,4.4v0.1c0,3.3-2,5.3-4.8,6.1l5.5,7.7h-4.2l-5-7.1h-4.5
			v7.1h-3.6V111z M413.1,121.1c2.5,0,4.2-1.3,4.2-3.4v-0.1c0-2.2-1.6-3.4-4.2-3.4h-5.2v6.8H413.1z"/>
		<path class="st0" d="M425.3,111h3.3l10.8,14v-14h3.5v20.2h-3l-11.2-14.4v14.4h-3.5V111z"/>
		<path class="st0" d="M455.4,110.9h3.3l8.9,20.4h-3.8l-2.1-4.9h-9.6l-2.1,4.9h-3.6L455.4,110.9z M460.5,123.2l-3.5-8.1l-3.5,8.1
			H460.5z"/>
		<path class="st0" d="M473.6,114.3h-6.4V111h16.4v3.3h-6.4v16.9h-3.6V114.3z"/>
		<path class="st0" d="M487.6,111h3.6v20.2h-3.6V111z"/>
		<path class="st0" d="M495.8,121.2L495.8,121.2c0-5.8,4.4-10.5,10.6-10.5c6.2,0,10.6,4.7,10.6,10.4v0.1c0,5.7-4.4,10.5-10.6,10.5
			C500.1,131.6,495.8,126.9,495.8,121.2z M513.2,121.2L513.2,121.2c0-4-2.9-7.3-6.9-7.3s-6.8,3.2-6.8,7.1v0.1c0,3.9,2.9,7.2,6.9,7.2
			S513.2,125.1,513.2,121.2z"/>
		<path class="st0" d="M521.3,111h3.3l10.8,14v-14h3.5v20.2h-3l-11.2-14.4v14.4h-3.5V111z"/>
		<path class="st0" d="M551.4,110.9h3.3l8.9,20.4h-3.8l-2.1-4.9h-9.6l-2.1,4.9h-3.6L551.4,110.9z M556.5,123.2l-3.5-8.1l-3.5,8.1
			H556.5z"/>
		<path class="st0" d="M567.2,111h3.6v17h10.6v3.2h-14.2V111z"/>
		<path class="st0" d="M593,121.2L593,121.2c0-5.7,4.3-10.5,10.4-10.5c3.5,0,5.7,1,7.8,2.7l-2.3,2.7c-1.6-1.3-3.1-2.2-5.7-2.2
			c-3.7,0-6.6,3.3-6.6,7.1v0.1c0,4.2,2.7,7.2,6.9,7.2c1.9,0,3.6-0.6,4.9-1.5v-3.8h-5.2V120h8.6v8.5c-2,1.7-4.9,3.2-8.4,3.2
			C597.2,131.6,593,127.1,593,121.2z"/>
		<path class="st0" d="M616.7,111h9c2.5,0,4.5,0.8,5.8,2c1.1,1.1,1.7,2.6,1.7,4.4v0.1c0,3.3-2,5.3-4.8,6.1l5.5,7.7h-4.2l-5-7.1h-4.5
			v7.1h-3.6V111z M625.5,121.1c2.5,0,4.2-1.3,4.2-3.4v-0.1c0-2.2-1.6-3.4-4.2-3.4h-5.2v6.8H625.5z"/>
		<path class="st0" d="M636.8,121.2L636.8,121.2c0-5.8,4.4-10.5,10.6-10.5c6.2,0,10.6,4.7,10.6,10.4v0.1c0,5.7-4.4,10.5-10.6,10.5
			C641.1,131.6,636.8,126.9,636.8,121.2z M654.2,121.2L654.2,121.2c0-4-2.9-7.3-6.9-7.3c-4,0-6.8,3.2-6.8,7.1v0.1
			c0,3.9,2.9,7.2,6.9,7.2C651.4,128.3,654.2,125.1,654.2,121.2z"/>
		<path class="st0" d="M662,122.7V111h3.6v11.5c0,3.8,1.9,5.8,5.1,5.8c3.2,0,5.1-1.9,5.1-5.6V111h3.6v11.5c0,6-3.4,9.1-8.7,9.1
			C665.4,131.6,662,128.6,662,122.7z"/>
		<path class="st0" d="M684.3,111h8c4.7,0,7.7,2.7,7.7,6.8v0.1c0,4.5-3.6,6.9-8.1,6.9h-4v6.5h-3.6V111z M692,121.6
			c2.7,0,4.4-1.5,4.4-3.6v-0.1c0-2.4-1.7-3.6-4.4-3.6h-4.1v7.3H692z"/>
	</g>
</g>
</svg>
